<?xml version="1.0" encoding="UTF-8"?>
<svg version="1.1" xmlns="http://www.w3.org/2000/svg" width="512" height="512">
<path d="M0 0 C2.31308825 -0.00571376 4.62617369 -0.01268188 6.93925476 -0.02079773 C13.17922889 -0.03863592 19.41906167 -0.03757803 25.65905356 -0.03185534 C30.88950306 -0.028749 36.11992597 -0.03487216 41.35037166 -0.04089409 C54.40693527 -0.05570695 67.46342017 -0.052152 80.51998345 -0.04003078 C91.80833079 -0.0301099 103.09651395 -0.04302712 114.38483598 -0.06696498 C126.02798093 -0.09146557 137.67104297 -0.10053896 149.3142131 -0.09431225 C155.82995124 -0.09096022 162.34555393 -0.09323983 168.86127281 -0.11056328 C174.99531545 -0.12616211 181.12904774 -0.12193483 187.26307869 -0.10325813 C189.49733806 -0.09960736 191.7316211 -0.10257631 193.96585846 -0.11314392 C214.51688398 -0.20282559 233.20825185 1.9986698 251.66918945 11.40405273 C252.83192383 11.97381836 253.9946582 12.54358398 255.19262695 13.13061523 C262.40800702 16.81399107 268.57048069 21.09131133 274.66918945 26.40405273 C275.49032227 27.09241211 276.31145508 27.78077148 277.1574707 28.48999023 C299.11016332 47.40412976 312.54397707 74.27567735 314.89396548 103.16755652 C315.2466694 110.16288242 315.20413035 117.15857842 315.17089844 124.16064453 C315.17469187 126.47096077 315.18020028 128.78127472 315.18727112 131.09158325 C315.20110699 137.30425093 315.1901411 143.51663798 315.1735599 149.72928977 C315.15959666 156.26490676 315.16618203 162.8005093 315.16969299 169.33613586 C315.17311263 180.30291032 315.15908831 191.26958075 315.13574219 202.23632812 C315.11181293 213.47855711 315.10474796 224.72064073 315.11523438 235.96289062 C315.12791004 249.57621973 315.12531179 263.18944737 315.10957527 276.80277443 C315.10384838 281.97737005 315.10387197 287.15191702 315.10864067 292.32651329 C315.11344565 298.4277369 315.10316414 304.52876178 315.08168602 310.62994766 C315.07616639 312.85620898 315.07560789 315.08248958 315.08063889 317.30875206 C315.13925353 346.98840494 309.00948015 374.14253472 289.66918945 397.40405273 C288.96020508 398.26514648 288.2512207 399.12624023 287.52075195 400.01342773 C268.48898283 422.13700051 241.71788448 435.91213557 212.66918945 438.40405273 C209.37776486 438.53573988 206.09132526 438.5435968 202.79756165 438.5377655 C201.84419849 438.54003106 200.89083534 438.54229662 199.90858239 438.54463083 C196.73542909 438.55092691 193.56231898 438.55014429 190.38916016 438.54931641 C188.10515793 438.55231066 185.82115621 438.5557138 183.53715515 438.55949402 C177.34686015 438.56831164 171.15657899 438.57067121 164.96627831 438.5713098 C161.09413208 438.57202164 157.22198934 438.5741585 153.34984398 438.57680702 C140.52495209 438.5855767 127.70007134 438.59022765 114.87517688 438.58947655 C114.18498668 438.58943659 113.49479647 438.58939664 112.78369141 438.58935547 C112.09264941 438.58931459 111.40160741 438.58927371 110.68962475 438.58923159 C99.49961653 438.58882545 88.30964202 438.59838875 77.11964355 438.61249384 C65.60446095 438.6268932 54.08929912 438.63357935 42.57410687 438.63290006 C36.1194455 438.63264573 29.66482228 438.63546066 23.21016884 438.64607811 C17.13542013 438.65579817 11.06074575 438.65581155 4.98599434 438.64856148 C2.76492453 438.64752045 0.54384999 438.64984969 -1.67721176 438.65592194 C-15.9707957 438.69244776 -29.89748774 438.46013606 -43.70581055 434.27905273 C-44.4100415 434.06659912 -45.11427246 433.85414551 -45.83984375 433.63525391 C-73.79476415 424.75112972 -97.86948014 403.83126194 -111.5534668 378.01342773 C-121.73111492 357.82326368 -123.93769742 336.93929159 -123.84838867 314.60327148 C-123.85382378 312.28796959 -123.86095415 309.97267117 -123.86962891 307.65737915 C-123.88770001 301.43005848 -123.88086231 295.20300603 -123.86811256 288.9756813 C-123.85790014 282.42144359 -123.86740092 275.86722701 -123.87365723 269.31298828 C-123.88216794 257.60949152 -123.8690361 245.90610639 -123.84861988 234.20262897 C-123.83075384 223.6346194 -123.83385948 213.0667857 -123.85229492 202.4987793 C-123.87379848 190.1665741 -123.88161752 177.83448067 -123.86984587 165.50225925 C-123.86364836 158.99612273 -123.86267126 152.49010678 -123.87599182 145.98397827 C-123.88764962 139.86382522 -123.87934519 133.74400034 -123.85641479 127.62388229 C-123.85118031 125.39404212 -123.85254967 123.16417374 -123.86146545 120.93434525 C-123.9246323 103.51415316 -122.58835525 86.23772683 -115.64331055 70.02905273 C-115.30082275 69.20655029 -114.95833496 68.38404785 -114.60546875 67.53662109 C-102.11129419 38.554997 -78.03419157 18.36063171 -49.33081055 6.40405273 C-46.02099892 5.12451072 -42.78213028 4.2111072 -39.33081055 3.40405273 C-37.76564335 3.02883688 -37.76564335 3.02883688 -36.16885662 2.64604092 C-24.0959361 0.05712587 -12.30945368 -0.02766785 0 0 Z M141.79418945 172.59155273 C140.47417385 174.02151436 139.1538505 175.45119195 137.83325195 176.88061523 C137.15294922 177.62085938 136.47264648 178.36110352 135.77172852 179.1237793 C132.26324115 182.92885036 128.71617828 186.6974082 125.16918945 190.46655273 C124.52353027 191.15579834 123.87787109 191.84504395 123.21264648 192.55517578 C120.16143806 195.80335096 117.08180678 199.01007157 113.91918945 202.15014648 C111.5631479 204.48995547 109.31349987 206.86588938 107.16918945 209.40405273 C104.92361006 212.01052882 102.62367433 214.49339794 100.16918945 216.90405273 C97.10576552 219.91289451 94.30721521 223.08758748 91.51293945 226.34545898 C88.87484488 229.29095864 86.03519195 232.01366705 83.1730957 234.73999023 C81.44568852 236.27752957 81.44568852 236.27752957 81.66918945 238.40405273 C79.88818359 239.08325195 79.88818359 239.08325195 77.66918945 239.40405273 C75.92089844 238.28344727 75.92089844 238.28344727 74.1652832 236.53686523 C73.18579712 235.58553711 73.18579712 235.58553711 72.18652344 234.61499023 C71.50017822 233.92663086 70.81383301 233.23827148 70.10668945 232.52905273 C68.67183391 231.13310025 67.23432828 229.73986655 65.79418945 228.34936523 C65.09165039 227.6690625 64.38911133 226.98875977 63.6652832 226.2878418 C60.27251515 223.08595845 56.64464373 220.22667023 52.98950195 217.32983398 C50.81824394 215.52776294 48.9108951 213.64620001 46.98168945 211.59155273 C42.6299277 207.13617761 37.85856502 204.27690158 31.54418945 203.90405273 C25.92949995 204.6285288 23.09199911 206.82742582 19.35668945 210.96655273 C16.48836044 215.10969464 16.33365112 218.45486231 16.66918945 223.40405273 C19.43178777 231.20433033 26.42027916 236.27999156 32.51293945 241.52905273 C34.86881903 243.57764367 37.17426405 245.67608275 39.48168945 247.77905273 C42.88002497 250.85152047 46.34509468 253.78847895 49.91918945 256.65405273 C55.1115581 260.8345373 59.9508029 265.32636067 64.72290039 269.9753418 C69.78976767 274.81309856 74.20533292 277.66953501 81.4465332 277.90014648 C88.30118444 276.37019797 92.68875202 271.69511859 97.16918945 266.65405273 C98.38883783 265.31514321 99.60890488 263.97661497 100.8293457 262.63842773 C101.45599121 261.94555664 102.08263672 261.25268555 102.72827148 260.53881836 C105.98336989 256.95861956 109.29584802 253.4326252 112.60668945 249.90405273 C113.20868164 249.25855469 113.81067383 248.61305664 114.4309082 247.94799805 C117.36842301 244.80739179 120.34008794 241.71530252 123.3918457 238.68530273 C125.75704435 236.33628824 128.01650686 233.952126 130.16918945 231.40405273 C132.41476885 228.79757665 134.71470457 226.31470753 137.16918945 223.90405273 C140.23261339 220.89521096 143.0311637 217.72051799 145.82543945 214.46264648 C148.46353402 211.51714683 151.30318696 208.79443842 154.1652832 206.06811523 C155.89269039 204.5305759 155.89269039 204.5305759 155.66918945 202.40405273 C156.32918945 202.40405273 156.98918945 202.40405273 157.66918945 202.40405273 C159.17192832 200.95722221 159.17192832 200.95722221 160.73168945 199.02905273 C164.34623585 194.76769277 168.08071007 190.63143863 171.84887695 186.50561523 C175.26022151 182.56719598 175.00609281 179.228338 174.9465332 174.16577148 C174.422197 168.9445645 171.78952765 166.41769206 168.04418945 163.02905273 C156.57620416 157.50743019 149.30758568 164.32380349 141.79418945 172.59155273 Z " fill="#FFC14F" transform="translate(160.330810546875,36.595947265625)"/>
</svg>
