<?xml version="1.0" encoding="UTF-8"?>
<svg version="1.1" xmlns="http://www.w3.org/2000/svg" width="512" height="512">
<path d="M0 0 C2.23884246 -0.00435468 4.47768343 -0.00954033 6.71652222 -0.01548767 C12.76218047 -0.02880846 18.80777595 -0.02946401 24.85344601 -0.02692437 C29.91755585 -0.02584981 34.98165324 -0.03075044 40.04576039 -0.03552979 C52.68487358 -0.04723286 65.32394864 -0.04641366 77.96306124 -0.03997298 C88.89787592 -0.03480826 99.8326014 -0.04605318 110.76739845 -0.0650712 C122.03867896 -0.08452169 133.30991861 -0.09240265 144.58121991 -0.08894795 C150.89175106 -0.08714327 157.20220053 -0.08968926 163.5127182 -0.10366249 C169.45215366 -0.11632342 175.39141185 -0.11421919 181.33084488 -0.1012516 C183.4970239 -0.09890406 185.66321572 -0.10155416 187.82938004 -0.10987473 C222.08840475 -0.23186772 251.49737966 8.32994352 276.33300781 32.5871582 C288.58362977 44.983145 297.4383903 60.22108128 302.45800781 76.8996582 C302.64911133 77.53097656 302.84021484 78.16229492 303.03710938 78.81274414 C306.95698622 92.93426054 306.8764313 107.17035667 306.85766602 121.69165039 C306.8620207 123.93049285 306.86720635 126.16933382 306.87315369 128.40817261 C306.88647447 134.45383086 306.88713003 140.49942634 306.88459039 146.5450964 C306.88351583 151.60920624 306.88841646 156.67330363 306.89319581 161.73741078 C306.90489888 174.37652398 306.90407967 187.01559903 306.897639 199.65471163 C306.89247428 210.58952631 306.90371919 221.52425179 306.92273722 232.45904884 C306.94218771 243.73032935 306.95006867 255.001569 306.94661397 266.2728703 C306.94480929 272.58340145 306.94735528 278.89385092 306.96132851 285.20436859 C306.97398944 291.14380405 306.9718852 297.08306224 306.95891762 303.02249527 C306.95657008 305.18867429 306.95922018 307.35486611 306.96754074 309.52103043 C307.08953373 343.78005514 298.5277225 373.18903005 274.27050781 398.0246582 C261.87452101 410.27528016 246.63658473 419.13004069 229.95800781 424.1496582 C229.32668945 424.34076172 228.69537109 424.53186523 228.04492188 424.72875977 C213.92340548 428.64863661 199.68730935 428.56808169 185.16601562 428.54931641 C182.92717317 428.55367109 180.6883322 428.55885674 178.44949341 428.56480408 C172.40383515 428.57812486 166.35823968 428.57878042 160.31256962 428.57624078 C155.24845978 428.57516622 150.18436239 428.58006685 145.12025523 428.5848462 C132.48114204 428.59654927 119.84206699 428.59573006 107.20295438 428.58928939 C96.2681397 428.58412467 85.33341423 428.59536959 74.39861718 428.61438761 C63.12733667 428.6338381 51.85609702 428.64171906 40.58479571 428.63826436 C34.27426456 428.63645968 27.9638151 428.63900567 21.65329742 428.6529789 C15.71386196 428.66563983 9.77460378 428.6635356 3.83517075 428.65056801 C1.66899173 428.64822047 -0.4972001 428.65087057 -2.66336441 428.65919113 C-36.92238912 428.78118412 -66.33136403 420.21937289 -91.16699219 395.9621582 C-103.41761415 383.5661714 -112.27237467 368.32823512 -117.29199219 351.6496582 C-117.4830957 351.01833984 -117.67419922 350.38702148 -117.87109375 349.73657227 C-121.79097059 335.61505587 -121.71041567 321.37895974 -121.69165039 306.85766602 C-121.69600507 304.61882356 -121.70119072 302.37998259 -121.70713806 300.1411438 C-121.72045885 294.09548554 -121.7211144 288.04989007 -121.71857476 282.00422001 C-121.71750021 276.94011017 -121.72240083 271.87601278 -121.72718018 266.81190562 C-121.73888325 254.17279243 -121.73806405 241.53371738 -121.73162337 228.89460477 C-121.72645865 217.95979009 -121.73770357 207.02506462 -121.75672159 196.09026757 C-121.77617208 184.81898706 -121.78405304 173.54774741 -121.78059834 162.2764461 C-121.77879366 155.96591495 -121.78133965 149.65546549 -121.79531288 143.34494781 C-121.80797381 137.40551236 -121.80586958 131.46625417 -121.79290199 125.52682114 C-121.79055445 123.36064212 -121.79320456 121.19445029 -121.80152512 119.02828598 C-121.92351811 84.76926127 -113.36170688 55.36028636 -89.10449219 30.5246582 C-76.70850539 18.27403625 -61.47056911 9.41927572 -44.79199219 4.3996582 C-44.16067383 4.20855469 -43.52935547 4.01745117 -42.87890625 3.82055664 C-28.75738985 -0.0993202 -14.52129372 -0.01876528 0 0 Z M-62.93261719 66.1340332 C-76.2234881 83.12170265 -77.86856056 99.87301998 -77.82104492 120.69580078 C-77.82675454 122.95892167 -77.83372108 125.22203968 -77.84184265 127.4851532 C-77.85972501 133.60513111 -77.85861475 139.72496525 -77.85290027 145.8449614 C-77.84980088 150.96642158 -77.85590929 156.08785443 -77.86193901 161.20931071 C-77.87676753 173.98859417 -77.87318452 186.7677772 -77.86107571 199.5470567 C-77.85114944 210.61338452 -77.86407862 221.679545 -77.8880099 232.74584702 C-77.9124675 244.14249974 -77.92159376 255.53904522 -77.91535717 266.93572921 C-77.91199671 273.32055082 -77.91434196 279.70523427 -77.9316082 286.09003639 C-77.94714642 292.09761051 -77.94304556 298.10486679 -77.92430305 304.11242867 C-77.920636 306.30727836 -77.92367013 308.50215197 -77.93418884 310.69697952 C-78.03219184 332.85115361 -74.39131225 350.71232636 -58.41699219 367.2746582 C-41.0177461 382.58219165 -23.24228835 384.72947523 -0.99584961 384.67871094 C1.26727128 384.68442055 3.53038929 384.69138709 5.79350281 384.69950867 C11.91348072 384.71739102 18.03331486 384.71628077 24.15331101 384.71056628 C29.27477119 384.7074669 34.39620404 384.71357531 39.51766032 384.71960503 C52.29694378 384.73443355 65.0761268 384.73085053 77.85540631 384.71874172 C88.92173413 384.70881546 99.98789461 384.72174464 111.05419663 384.74567591 C122.45084935 384.77013352 133.84739483 384.77925978 145.24407881 384.77302319 C151.62890043 384.76966272 158.01358388 384.77200797 164.398386 384.78927422 C170.40596012 384.80481244 176.4132164 384.80071158 182.42077827 384.78196907 C184.61562797 384.77830201 186.81050158 384.78133615 189.00532913 384.79185486 C211.15950322 384.88985786 229.02067597 381.24897826 245.58300781 365.2746582 C260.89054125 347.87541212 263.03782484 330.09995437 262.98706055 307.85351562 C262.99277016 305.59039474 262.9997367 303.32727673 263.00785828 301.06416321 C263.02574063 294.94418529 263.02463038 288.82435115 263.01891589 282.704355 C263.01581651 277.58289483 263.02192492 272.46146197 263.02795464 267.3400057 C263.04278316 254.56072223 263.03920014 241.78153921 263.02709133 229.00225971 C263.01716507 217.93593188 263.03009425 206.86977141 263.05402552 195.80346938 C263.07848313 184.40681667 263.08760939 173.01027119 263.0813728 161.6135872 C263.07801233 155.22876558 263.08035758 148.84408213 263.09762383 142.45928001 C263.11316204 136.4517059 263.10906118 130.44444962 263.09031868 124.43688774 C263.08665162 122.24203804 263.08968576 120.04716444 263.10020447 117.85233688 C263.19820747 95.69816279 259.55732787 77.83699004 243.58300781 61.2746582 C226.18376173 45.96712476 208.40830398 43.81984117 186.16186523 43.87060547 C183.89874435 43.86489586 181.63562634 43.85792932 179.37251282 43.84980774 C173.2525349 43.83192538 167.13270076 43.83303564 161.01270461 43.83875012 C155.89124444 43.84184951 150.76981158 43.8357411 145.64835531 43.82971138 C132.86907184 43.81488286 120.08988882 43.81846587 107.31060932 43.83057468 C96.24428149 43.84050095 85.17812101 43.82757177 74.11181899 43.80364049 C62.71516628 43.77918289 51.3186208 43.77005663 39.92193681 43.77629322 C33.53711519 43.77965369 27.15243174 43.77730843 20.76762962 43.76004219 C14.76005551 43.74450397 8.75279923 43.74860483 2.74523735 43.76734734 C0.55038765 43.77101439 -1.64448595 43.76798026 -3.83931351 43.75746155 C-27.03953284 43.65483118 -46.83127481 47.83250739 -62.93261719 66.1340332 Z " fill="#FFC050" transform="translate(163.4169921875,41.725341796875)"/>
<path d="M0 0 C5.24418251 3.10280798 8.65131837 7.19379886 11.0625 12.75 C12.17991283 20.07526187 11.31837018 25.97620547 7.625 32.4375 C5.609375 34.96484375 5.609375 34.96484375 3.375 37.375 C2.57835937 38.23738281 1.78171875 39.09976563 0.9609375 39.98828125 C-1.54714692 42.61799518 -4.10611717 45.1850564 -6.69921875 47.73046875 C-8.48553443 49.55009568 -10.14977835 51.44203917 -11.8125 53.375 C-14.23117779 56.18326347 -16.73399683 58.83720593 -19.375 61.4375 C-21.99540609 64.01759215 -24.47823412 66.64853607 -26.875 69.4375 C-29.89262353 72.94891648 -33.10859081 76.19057402 -36.40625 79.4375 C-38.31486455 81.37641002 -40.10210552 83.37449551 -41.875 85.4375 C-44.89262353 88.94891648 -48.10859081 92.19057402 -51.40625 95.4375 C-53.31486455 97.37641002 -55.10210552 99.37449551 -56.875 101.4375 C-59.88917324 104.94490158 -63.09796091 108.18511418 -66.3984375 111.421875 C-68.37290288 113.43536143 -70.18572961 115.52955725 -72 117.6875 C-76.12861675 122.48536741 -80.46181581 126.0838641 -87.01171875 126.67578125 C-88.01847656 126.70027344 -89.02523437 126.72476563 -90.0625 126.75 C-91.55330078 126.80607422 -91.55330078 126.80607422 -93.07421875 126.86328125 C-100.76715966 125.87093739 -106.00012394 121.40253818 -111.375 116.125 C-112.59820689 114.95624429 -113.82215919 113.78826819 -115.046875 112.62109375 C-115.62373047 112.06663574 -116.20058594 111.51217773 -116.79492188 110.94091797 C-119.27637212 108.57985947 -121.86106484 106.34696539 -124.453125 104.109375 C-126.78605074 102.07991927 -129.08011245 100.009853 -131.375 97.9375 C-134.35562721 95.24766569 -137.34745233 92.57439636 -140.375 89.9375 C-141.70900496 88.77160135 -143.04228759 87.60487591 -144.375 86.4375 C-145.22578125 85.69242187 -146.0765625 84.94734375 -146.953125 84.1796875 C-148.27570313 83.00792969 -148.27570313 83.00792969 -149.625 81.8125 C-150.83929688 80.74128906 -150.83929688 80.74128906 -152.078125 79.6484375 C-156.61156014 75.28462068 -159.24428121 71.70784963 -160.375 65.4375 C-160.47221224 58.72985554 -159.31714482 53.87126718 -155.375 48.4375 C-150.41950459 43.36676051 -145.02676381 40.75200604 -137.890625 40.26953125 C-125.1516881 40.80361711 -116.69525377 51.61359982 -108.05029297 59.85058594 C-102.77845025 64.84431629 -97.3571571 69.32476699 -91.375 73.4375 C-85.39577472 67.54663766 -79.46014485 61.69286434 -74.015625 55.296875 C-71.58776113 52.54529595 -68.95750081 50.01103926 -66.34375 47.4375 C-64.43513545 45.49858998 -62.64789448 43.50050449 -60.875 41.4375 C-57.85737647 37.92608352 -54.64140919 34.68442598 -51.34375 31.4375 C-49.43513545 29.49858998 -47.64789448 27.50050449 -45.875 25.4375 C-42.85841659 21.92729385 -39.64674102 18.68478446 -36.34375 15.4453125 C-34.41184414 13.47507517 -32.64486401 11.42829198 -30.875 9.3125 C-22.90782692 0.04792029 -12.12166893 -5.48640334 0 0 Z " fill="#FFC050" transform="translate(330.375,193.5625)"/>
</svg>
